<svg xmlns="http://www.w3.org/2000/svg" viewBox="0 0 100 100" role="img" aria-label="牛主题头像"><rect width="100" height="100" rx="50" fill="#fff0f4"/><path d="M31 39C13 36 12 20 21 14c-2 12 7 15 17 15M69 39c18-3 19-19 10-25 2 12-7 15-17 15" fill="#f5dfad" stroke="#ad8952" stroke-width="2"/><ellipse cx="25" cy="44" rx="12" ry="9" transform="rotate(25 25 44)" fill="#c46b82"/><ellipse cx="75" cy="44" rx="12" ry="9" transform="rotate(-25 75 44)" fill="#c46b82"/><ellipse cx="50" cy="55" rx="27" ry="30" fill="#c46b82"/><path d="M41 30q7-17 15-5l-4 9" fill="#c46b82"/><ellipse cx="40" cy="49" rx="3" ry="4" fill="#252a34"/><ellipse cx="60" cy="49" rx="3" ry="4" fill="#252a34"/><circle cx="41" cy="48" r="1" fill="white"/><circle cx="61" cy="48" r="1" fill="white"/><ellipse cx="50" cy="69" rx="23" ry="16" fill="#f3bdc9"/><ellipse cx="40" cy="66" rx="3" ry="4" fill="#785751"/><ellipse cx="60" cy="66" rx="3" ry="4" fill="#785751"/><path d="M44 76q6 4 12 0" fill="none" stroke="#785751" stroke-width="2" stroke-linecap="round"/></svg>
